<svg xmlns="http://www.w3.org/2000/svg" version="1.1" xmlns:xlink="http://www.w3.org/1999/xlink" viewBox="0 0 200 200" width="200" height="200"><metadata><rdf:RDF xmlns:rdf="http://www.w3.org/1999/02/22-rdf-syntax-ns#" xmlns:dc="http://purl.org/dc/elements/1.1/"><rdf:Description><dc:creator>RealFaviconGenerator</dc:creator><dc:source>https://realfavicongenerator.net</dc:source></rdf:Description></rdf:RDF></metadata><rect width="200" height="200" fill="url('#gradient')"></rect><defs><linearGradient id="gradient" gradientTransform="rotate(45 0.5 0.5)"><stop offset="0%" stop-color="#080b12"></stop><stop offset="100%" stop-color="#080b12"></stop></linearGradient></defs><g><g fill="#3ddcff" transform="matrix(6.275791624106231,0,0,6.275791624106231,7.806237298572881,144.62025415178948)" stroke="#c8512e" stroke-width="0.2"><path d="M12.24-14.22L12.24-11.57L7.97-11.57L7.97 0L4.54 0L4.54-11.57L0.35-11.57L0.35-14.22L12.24-14.22ZM13.68-14.22L18.18-14.22L21.36-4.33L24.52-14.22L29.03-14.22L29.03 0L25.60 0L25.60-3.32L25.93-10.12L22.49 0L20.22 0L16.78-10.13L17.11-3.32L17.11 0L13.68 0L13.68-14.22Z"></path></g></g></svg>